<svg xmlns="http://www.w3.org/2000/svg" width="126.869" height="40" viewBox="0 0 126.869 40">
  <g id="Content" transform="translate(0.003 0.003)">
    <path id="Path_184" data-name="Path 184" d="M271.834,64.972a10.153,10.153,0,0,1-5.3-1.35,9.368,9.368,0,0,1-3.546-3.767,11.827,11.827,0,0,1-1.28-5.62,11.706,11.706,0,0,1,1.28-5.59,9.5,9.5,0,0,1,3.546-3.78,10.936,10.936,0,0,1,10.582,0,9.49,9.49,0,0,1,3.561,3.78,11.765,11.765,0,0,1,1.28,5.59,11.887,11.887,0,0,1-1.28,5.62,9.373,9.373,0,0,1-3.561,3.767A10.169,10.169,0,0,1,271.834,64.972Zm0-3.2a6.465,6.465,0,0,0,3.429-.905,5.975,5.975,0,0,0,2.3-2.594,10.456,10.456,0,0,0,0-8.067,5.993,5.993,0,0,0-2.3-2.6,6.975,6.975,0,0,0-6.872,0,5.99,5.99,0,0,0-2.281,2.6,10.456,10.456,0,0,0,0,8.067,5.985,5.985,0,0,0,2.281,2.594A6.431,6.431,0,0,0,271.834,61.769Z" transform="translate(-205.981 -34.239)" fill="#5e21f0"/>
    <path id="Path_185" data-name="Path 185" d="M372.55,86.1V71.156h3.12l.236,2.492a5.205,5.205,0,0,1,1.942-2.076,5.664,5.664,0,0,1,3-.771,5.972,5.972,0,0,1,3.06.756,4.9,4.9,0,0,1,1.942,2.208,8.552,8.552,0,0,1,.677,3.618V86.1h-3.5V77.738A4.544,4.544,0,0,0,382.2,74.8a2.975,2.975,0,0,0-2.443-1.007,3.471,3.471,0,0,0-1.885.52,3.648,3.648,0,0,0-1.31,1.467,5.112,5.112,0,0,0-.486,2.342V86.1H372.55Z" transform="translate(-293.217 -55.725)" fill="#5e21f0"/>
    <path id="Path_186" data-name="Path 186" d="M460.879,87.781a6.074,6.074,0,0,1-3.045-.726,4.7,4.7,0,0,1-1.957-2.193,8.567,8.567,0,0,1-.677-3.6V72.48h3.533v8.392a4.53,4.53,0,0,0,.809,2.922,2.983,2.983,0,0,0,2.457.994,3.479,3.479,0,0,0,1.87-.52,3.64,3.64,0,0,0,1.325-1.454,5.011,5.011,0,0,0,.486-2.328V72.48h3.531V87.427h-3.12l-.264-2.492a4.958,4.958,0,0,1-1.927,2.076,5.745,5.745,0,0,1-3.018.771Z" transform="translate(-358.267 -57.048)" fill="#5e21f0"/>
    <path id="Path_187" data-name="Path 187" d="M542.48,86.466a8.307,8.307,0,0,1-3.443-.652,5.689,5.689,0,0,1-2.281-1.778,5.121,5.121,0,0,1-.986-2.611H539.3a2.48,2.48,0,0,0,.53,1.127,3.033,3.033,0,0,0,1.06.816,3.558,3.558,0,0,0,1.559.311,3.36,3.36,0,0,0,1.427-.251,1.96,1.96,0,0,0,.824-.667,1.576,1.576,0,0,0,.279-.89,1.518,1.518,0,0,0-.368-1.112,2.7,2.7,0,0,0-1.088-.607,12.5,12.5,0,0,0-1.78-.415c-.667-.138-1.335-.307-2-.5a7.189,7.189,0,0,1-1.78-.786,3.923,3.923,0,0,1-1.25-1.231,3.3,3.3,0,0,1-.471-1.81,4.2,4.2,0,0,1,.692-2.357,4.556,4.556,0,0,1,2.032-1.646,7.708,7.708,0,0,1,3.135-.592A6.55,6.55,0,0,1,546.234,72a4.9,4.9,0,0,1,1.81,3.35h-3.356a2.021,2.021,0,0,0-.839-1.29,3.068,3.068,0,0,0-1.78-.46,3.028,3.028,0,0,0-1.75.43,1.335,1.335,0,0,0-.6,1.141,1.112,1.112,0,0,0,.368.831,3.314,3.314,0,0,0,1.06.637,9.672,9.672,0,0,0,1.75.49,17.813,17.813,0,0,1,2.913.756,4.68,4.68,0,0,1,2,1.32,3.638,3.638,0,0,1,.735,2.432,4.4,4.4,0,0,1-.735,2.534,4.856,4.856,0,0,1-2.089,1.691,7.876,7.876,0,0,1-3.237.607Z" transform="translate(-421.679 -55.733)" fill="#5e21f0"/>
    <path id="Path_188" data-name="Path 188" d="M12.27,85.673a17.694,17.694,0,0,1-.9,1.851A20.014,20.014,0,0,1,1.122,62.87a17.377,17.377,0,0,1,1.946.669,16.953,16.953,0,0,1,9.2,22.136Z" transform="translate(0 -49.484)" fill="#5e21f0"/>
    <path id="Path_189" data-name="Path 189" d="M33.177,3.068a16.953,16.953,0,0,1-22.136,9.2,17.693,17.693,0,0,1-1.851-.9A20.014,20.014,0,0,1,33.843,1.122a17.377,17.377,0,0,1-.669,1.946Z" transform="translate(-7.235 0)" fill="#5e21f0"/>
    <path id="Path_190" data-name="Path 190" d="M87.516,126.345A20.017,20.017,0,0,1,62.86,136.594a17.818,17.818,0,0,1,.669-1.946,16.953,16.953,0,0,1,22.136-9.2A17.49,17.49,0,0,1,87.516,126.345Z" transform="translate(-49.476 -97.722)" fill="#5e21f0"/>
    <path id="Path_191" data-name="Path 191" d="M136.594,33.836a17.377,17.377,0,0,1-1.946-.669,16.953,16.953,0,0,1-9.2-22.136,17.693,17.693,0,0,1,.9-1.851,20.017,20.017,0,0,1,10.249,24.656Z" transform="translate(-97.722 -7.227)" fill="#5e21f0"/>
    <path id="Path_192" data-name="Path 192" d="M33.177,3.068a16.953,16.953,0,0,1-22.136,9.2,17.693,17.693,0,0,1-1.851-.9A20.014,20.014,0,0,1,33.843,1.122a17.377,17.377,0,0,1-.669,1.946Z" transform="translate(-7.235 0)" fill="#5e21f0"/>
    <path id="Path_193" data-name="Path 193" d="M136.594,33.836a17.377,17.377,0,0,1-1.946-.669,16.953,16.953,0,0,1-9.2-22.136,17.693,17.693,0,0,1,.9-1.851,20.017,20.017,0,0,1,10.249,24.656Z" transform="translate(-97.722 -7.227)" fill="#5e21f0"/>
    <path id="Path_194" data-name="Path 194" d="M12.27,85.673a17.694,17.694,0,0,1-.9,1.851A20.014,20.014,0,0,1,1.122,62.87a17.377,17.377,0,0,1,1.946.669,16.953,16.953,0,0,1,9.2,22.136Z" transform="translate(0 -49.484)" fill="#5e21f0"/>
    <path id="Path_195" data-name="Path 195" d="M87.516,126.345A20.017,20.017,0,0,1,62.86,136.594a17.818,17.818,0,0,1,.669-1.946,16.953,16.953,0,0,1,22.136-9.2A17.49,17.49,0,0,1,87.516,126.345Z" transform="translate(-49.476 -97.722)" fill="#5e21f0"/>
  </g>
</svg>
