<svg xmlns="http://www.w3.org/2000/svg" width="20" height="20" viewBox="0 0 20 20">
  <g id="medical_search" transform="translate(-6 -6)">
    <path id="Path_226" data-name="Path 226" d="M23.222,17.222V15h2.222v2.222h2.222v2.222H25.444v2.222H23.222V19.444H21V17.222Z" transform="translate(-6.667 -4)" fill="#9c8eeb"/>
    <path id="Path_227" data-name="Path 227" d="M17.667,22.667a8.333,8.333,0,1,0-6.228-2.8l-.644.644-.947.066L6,24.429,7.571,26,11.4,22.176l.088-.778.748-.748A8.3,8.3,0,0,0,17.667,22.667Zm0-1.111a7.222,7.222,0,1,0-7.222-7.222A7.222,7.222,0,0,0,17.667,21.556Z" fill="#9c8eeb" fill-rule="evenodd"/>
    <path id="Path_228" data-name="Path 228" d="M11.854,19.5l.348.392.391.336A7.742,7.742,0,0,0,17.305,22.1a7.778,7.778,0,0,1-7.412-7.511A7.745,7.745,0,0,0,11.854,19.5Zm-.813,1.553-.947.066L6.786,24.429l.786.786,3.294-3.294.088-.778Zm.354,1.122L7.571,26,6,24.429l3.848-3.848.947-.066.644-.644a8.331,8.331,0,1,1,.792.779l-.748.748Zm5.715-8.4H14.889v1.111h2.222v2.222h1.111V14.889h2.222V13.778H18.222V11.556H17.111ZM18.778,11v2.222H21v2.222H18.778v2.222H16.556V15.444H14.333V13.222h2.222V11Zm6.111,3.333a7.222,7.222,0,1,1-7.222-7.222A7.222,7.222,0,0,1,24.889,14.333Z" fill="#9c8eeb" fill-rule="evenodd"/>
  </g>
</svg>
