<svg xmlns="http://www.w3.org/2000/svg" width="10" height="9.979" viewBox="0 0 10 9.979">
  <path id="Path_282" data-name="Path 282" d="M10,1.452v.156c-.027.095-.03.193-.052.29a1.583,1.583,0,0,1-.358.677L7.194,4.98l2.4,2.42a1.616,1.616,0,0,1,.346.63c.028.1.036.213.064.317v.215c-.028.115-.04.232-.073.347a1.562,1.562,0,0,1-2.564.62L5,7.176,2.652,9.519A1.541,1.541,0,0,1,.434,7.379l2.382-2.4L.416,2.574a1.6,1.6,0,0,1-.355-.661C.036,1.8.031,1.7.006,1.589c0-.039,0-.079,0-.117A1.537,1.537,0,0,1,2.5.331L5,2.8,7.368.446A1.546,1.546,0,0,1,10,1.452Z" transform="translate(-0.005 0.001)" fill="#fff"/>
</svg>
