<svg id="Layer_1-2" xmlns="http://www.w3.org/2000/svg" width="15.036" height="14" viewBox="0 0 15.036 14">
  <path id="Path_254" data-name="Path 254" d="M0,16.47H15.036V22.9a2,2,0,0,1-2.064,2.064H2.054A2,2,0,0,1,0,22.91V16.47Zm5.011,2.5v-.484a.5.5,0,0,0-.511-.518c-.327,0-.658,0-.985,0a.492.492,0,0,0-.5.5c0,.327,0,.655,0,.985a.492.492,0,0,0,.5.508q.5.01,1,0a.493.493,0,0,0,.5-.5c0-.167,0-.334,0-.5Zm2.5,1c.174,0,.344,0,.518,0a.5.5,0,0,0,.491-.488c.007-.337.007-.678,0-1.016a.493.493,0,0,0-.5-.494q-.5-.005-1,0a.49.49,0,0,0-.5.494c-.007.334,0,.668,0,1a.5.5,0,0,0,.508.5C7.185,19.967,7.349,19.964,7.509,19.964Zm4.52-1v-.5a.5.5,0,0,0-.508-.5c-.327,0-.658,0-.985,0a.492.492,0,0,0-.508.5c0,.334-.007.668,0,1a.5.5,0,0,0,.5.5q.5.01,1,0a.5.5,0,0,0,.5-.511v-.484ZM4.022,21.214h-.5a.5.5,0,0,0-.514.514c0,.324,0,.645,0,.969a.5.5,0,0,0,.511.518c.327,0,.658,0,.985,0a.492.492,0,0,0,.5-.5c0-.327,0-.655,0-.985a.5.5,0,0,0-.518-.508H4.019Zm3.5,0h-.5a.494.494,0,0,0-.5.5c0,.327,0,.655,0,.985a.492.492,0,0,0,.5.508q.5.01,1,0a.491.491,0,0,0,.5-.5c.007-.334.007-.668,0-1a.5.5,0,0,0-.511-.5H7.523Zm3.5,2h.484a.5.5,0,0,0,.518-.511c0-.327,0-.655,0-.985a.494.494,0,0,0-.508-.5c-.327,0-.658,0-.985,0a.5.5,0,0,0-.511.5c0,.334-.007.668,0,1a.5.5,0,0,0,.5.5c.167,0,.334,0,.5,0Z" transform="translate(0 -10.968)" fill="#404040"/>
  <path id="Path_255" data-name="Path 255" d="M.04,6.7C.04,6-.014,5.316.053,4.641a1.948,1.948,0,0,1,1.9-1.684c.264-.007.531,0,.812,0V5.446h2V2.964h5.508V5.446h2.008V2.981C13.448,2.837,14.6,3.1,15,4.521a1.116,1.116,0,0,1,.043.277c0,.628,0,1.259,0,1.9H.04Z" transform="translate(-0.013 -1.962)" fill="#404040"/>
  <path id="Path_256" data-name="Path 256" d="M9.79,0h.982V2.98H9.79Z" transform="translate(-6.52)" fill="#404040"/>
  <path id="Path_257" data-name="Path 257" d="M32.29,0h.982V2.98H32.29Z" transform="translate(-21.504)" fill="#404040"/>
</svg>
