<svg xmlns="http://www.w3.org/2000/svg" width="20" height="20" viewBox="0 0 20 20">
  <g id="doctor-24px" transform="translate(-3 -3)">
    <path id="Path_252" data-name="Path 252" d="M12.444,11.889A4.444,4.444,0,1,0,8,7.444,4.444,4.444,0,0,0,12.444,11.889Z" transform="translate(0.556 0)" fill="#9c8eeb"/>
    <path id="Path_253" data-name="Path 253" d="M9.244,13.025l.415-.61a7.778,7.778,0,0,0,3.217.7h.248a7.777,7.777,0,0,0,2.784-.515l.292.429a3.136,3.136,0,0,1,.364,1.081,5.261,5.261,0,0,1,.1,1.172.831.831,0,0,0,.046.334h-.421a.844.844,0,0,0-.765.487l-.767,1.644a.844.844,0,0,0,.765,1.2h1.26V17.278h1.389v1.667h1.2a.844.844,0,0,0,.765-1.2L19.369,16.1a.844.844,0,0,0-.765-.487h-.327a.833.833,0,0,0,.046-.222A6.862,6.862,0,0,0,18.2,13.8a4.682,4.682,0,0,0-.624-1.714l-.054-.08q.084-.007.169-.007A5.308,5.308,0,0,1,23,17.308V22H3V17.308a5.308,5.308,0,0,1,4.916-5.294l-.049.072a4.851,4.851,0,0,0-.676,3.121,7.285,7.285,0,0,0,.147.962,1.666,1.666,0,1,0,1.633-.336,5.572,5.572,0,0,1-.119-.766A3.219,3.219,0,0,1,9.244,13.025Z" transform="translate(0 1)" fill="#9c8eeb"/>
  </g>
</svg>
