<svg xmlns="http://www.w3.org/2000/svg" width="20" height="19.965" viewBox="0 0 20 19.965">
  <g id="Layer_1-2" transform="translate(0 0)">
    <path id="Path_223" data-name="Path 223" d="M0,16.418V3.551a1.065,1.065,0,0,0,.035-.13A3.916,3.916,0,0,1,3.9.006q6.1-.013,12.2,0a3.909,3.909,0,0,1,3.751,2.866c.059.21.1.427.148.64V16.456a.658.658,0,0,0-.034.109,3.918,3.918,0,0,1-3.008,3.295c-.169.04-.341.07-.512.105H3.555a.971.971,0,0,0-.129-.035A3.929,3.929,0,0,1,.114,16.966C.07,16.784.037,16.6,0,16.417ZM14.85,6.493a3.392,3.392,0,0,0-1.59-2.923,6.194,6.194,0,0,0-3.86-.9,5.127,5.127,0,0,0-2.42.793,3.664,3.664,0,0,0-1.8,2.494,1.2,1.2,0,0,0,.9,1.517A1.308,1.308,0,0,0,7.6,6.859c.181-.3.326-.62.481-.934A1.8,1.8,0,0,1,9.216,4.98a2.34,2.34,0,0,1,1.08-.064,1.6,1.6,0,0,1,1.52,1.468,1.681,1.681,0,0,1-.407,1.322,8.03,8.03,0,0,1-.786.754c-.509.444-1.047.858-1.541,1.318a2.141,2.141,0,0,0-.72,1.761,1.2,1.2,0,0,0,1.009,1.211c.849.106,1.27-.177,1.493-.8.026-.073.055-.145.083-.218a2.637,2.637,0,0,1,.9-1.174c.706-.541,1.411-1.09,2.064-1.693a3.035,3.035,0,0,0,.944-2.369ZM8.084,15.72a1.611,1.611,0,0,0,1.6,1.618,1.625,1.625,0,1,0-1.6-1.618Z" transform="translate(0 0)" fill="#9180eb"/>
  </g>
</svg>
