<svg id="Layer_1-2" xmlns="http://www.w3.org/2000/svg" width="72" height="59.076" viewBox="0 0 72 59.076">
  <rect id="Rectangle_121" data-name="Rectangle 121" width="72" height="42" rx="10" transform="translate(0 8.538)" fill="#e9e6fc"/>
  <path id="ambulatory_clinic" d="M31.438,0a9.839,9.839,0,0,1,9.276,6.534H69.976v4.128L62.6,15.636V55.764h4.92a1.644,1.644,0,0,1,0,3.288H62.6v.024H16.684v-.024h-4.92a1.644,1.644,0,1,1,0-3.288h4.92v-40.2L10.126,10.6V6.534H22.174A9.837,9.837,0,0,1,31.438,0Zm1.638,8.2V4.908H29.782V8.2H26.488V11.5h3.294V14.79h3.294V11.5H36.37V8.2ZM56.038,29.52V55.758H42.922V29.52H56.038Zm-21.318,0H23.242V41H34.726V29.52Z" transform="translate(-4.048)" fill="#5e22f0" fill-rule="evenodd"/>
</svg>
