<svg xmlns="http://www.w3.org/2000/svg" width="20" height="19.734" viewBox="0 0 20 19.734">
  <path id="ambulatory_clinic" d="M13.123,6a3.289,3.289,0,0,1,3.1,2.183H26V9.562l-2.466,1.661V24.63h1.644a.548.548,0,0,1,0,1.1H23.534v.008H8.192v-.008H6.548a.548.548,0,0,1,0-1.1H8.192V11.2L6,9.543V8.183h4.026A3.289,3.289,0,0,1,13.123,6Zm.548,2.74v-1.1h-1.1v1.1h-1.1v1.1h1.1v1.1h1.1v-1.1h1.1V8.74Zm7.671,7.123V24.63H16.959V15.863Zm-7.123,0H10.384V19.7h3.836Z" transform="translate(-6 -6)" fill="#9c8eeb" fill-rule="evenodd"/>
</svg>
