<svg xmlns="http://www.w3.org/2000/svg" width="20" height="20" viewBox="0 0 20 20">
  <g id="syringe" transform="translate(-6.479 -6.479)">
    <path id="Path_248" data-name="Path 248" d="M6.673,10.409a.66.66,0,1,0,.934.934l.467-.467,2.335,2.335L8.541,15.078a.66.66,0,1,0,.934.934l.934-.934,7.939,7.939a3.3,3.3,0,0,0,3.541.74l.661.661a1.32,1.32,0,0,0,1.276.342l1.526,1.526a.66.66,0,0,0,.934-.934L24.76,23.826a1.32,1.32,0,0,0-.342-1.276l-.661-.661a3.3,3.3,0,0,0-.74-3.542l-7.939-7.939.934-.934a.66.66,0,1,0-.934-.934L13.21,10.408,10.876,8.074l.467-.467a.66.66,0,0,0-.934-.934Zm5.73.807L10.069,8.881,8.881,10.068,11.216,12.4Zm1.868,0-3.055,3.056,2.515,2.515,3.055-3.056Zm.393,6.5,1.4,1.4.934.934.934.934.934.934.288.288a2.161,2.161,0,0,0,2.318.484l1.221-1.221a2.161,2.161,0,0,0-.484-2.318l-4.49-4.49Zm8.962,5.656-.016-.018-.47-.47q-.06.066-.123.13t-.13.124l.47.47.018.016a.664.664,0,0,1,.251-.251Z" transform="translate(0 0)" fill="#9c8eeb" fill-rule="evenodd"/>
    <path id="Path_249" data-name="Path 249" d="M6.673,10.409a.66.66,0,0,0,.934.934l.467-.467,2.335,2.335L8.541,15.078a.66.66,0,1,0,.934.934l.934-.934,2.239,2.239a3.335,3.335,0,0,0,.332.291l-.021.021,2.3,2.3,1.868-1.868a.66.66,0,1,1,.934.934l-1.868,1.868.934.934,1.868-1.868a.66.66,0,1,1,.934.934L18.06,22.73l.287.287a3.3,3.3,0,0,0,3.542.74l.661.661a1.32,1.32,0,0,0,1.276.342l1.526,1.526a.66.66,0,0,0,.934-.934L24.76,23.826a1.32,1.32,0,0,0-.342-1.276l-.661-.661a3.3,3.3,0,0,0-.74-3.542l-5.389-5.389-.02.02a3.333,3.333,0,0,0-.291-.332l-2.239-2.239.934-.934a.66.66,0,1,0-.934-.934L13.21,10.408,10.876,8.073l.467-.467a.66.66,0,0,0-.934-.934Zm5.73.807L10.069,8.881,8.881,10.068,11.216,12.4Zm1.868,0,2.239,2.239a2.169,2.169,0,0,1,.279.343L13.8,16.789a2.172,2.172,0,0,1-.343-.279l-2.239-2.239Z" fill="#9c8eeb" fill-rule="evenodd"/>
  </g>
</svg>
