<svg xmlns="http://www.w3.org/2000/svg" width="72" height="59.883" viewBox="0 0 72 59.883">
  <g id="Layer_1-2" transform="translate(0 0.027)">
    <rect id="Rectangle_124" data-name="Rectangle 124" width="72" height="42" rx="10" transform="translate(0 8.923)" fill="#e9e6fc"/>
    <g id="syringe" transform="translate(6.068 -0.028)">
      <path id="Path_248" d="M10.693,11.767a1.977,1.977,0,0,0,2.8,2.8l1.4-1.4,6.99,6.99-5.592,5.586a1.977,1.977,0,0,0,2.8,2.8l2.8-2.8L45.637,49.5a9.863,9.863,0,0,0,10.6,2.214l1.98,1.98a3.948,3.948,0,0,0,3.822,1.026L66.6,59.287a1.977,1.977,0,0,0,2.8-2.8l-4.566-4.566A3.956,3.956,0,0,0,63.805,48.1l-1.98-1.98a9.871,9.871,0,0,0-2.214-10.6l-23.76-23.76,2.8-2.8a1.977,1.977,0,1,0-2.8-2.8l-5.592,5.592L23.275,4.777l1.4-1.4a1.977,1.977,0,1,0-2.8-2.8h0Zm17.148,2.418L20.857,7.2,17.3,10.747l6.99,6.978,3.552-3.546Zm5.592,0-9.144,9.144,7.53,7.53,9.144-9.144-7.53-7.53Zm1.176,19.452L38.8,37.825l2.8,2.8,2.8,2.8,2.8,2.8.864.864a6.463,6.463,0,0,0,6.936,1.446l3.654-3.654a6.463,6.463,0,0,0-1.446-6.936l-13.44-13.44-9.144,9.144ZM61.435,50.563l-.048-.054-1.4-1.4c-.12.132-.24.264-.366.39s-.258.252-.39.372l1.4,1.4.054.048a2,2,0,0,1,.75-.75h0Z" transform="translate(-10.113 0.016)" fill="#5e22f0" fill-rule="evenodd"/>
      <path id="Path_249" d="M10.693,11.755a1.977,1.977,0,0,0,2.8,2.8l1.4-1.4,6.99,6.99-5.592,5.586a1.977,1.977,0,0,0,2.8,2.8l2.8-2.8,6.7,6.7a9.848,9.848,0,0,0,1,.87l-.06.06L36.4,40.243l5.592-5.592a1.977,1.977,0,0,1,2.8,2.8l-5.592,5.592,2.8,2.8,5.592-5.592a1.977,1.977,0,0,1,2.8,2.8h0l-5.592,5.586.858.858a9.871,9.871,0,0,0,10.6,2.214l1.98,1.98A3.948,3.948,0,0,0,62.047,54.7l4.566,4.566a1.977,1.977,0,0,0,2.8-2.8l-4.566-4.566a3.956,3.956,0,0,0-1.026-3.822l-1.98-1.98a9.871,9.871,0,0,0-2.214-10.6L43.5,19.375l-.06.06a10.551,10.551,0,0,0-.87-1l-6.7-6.7,2.8-2.8a1.977,1.977,0,0,0-2.8-2.8l-5.592,5.592-6.984-6.99,1.4-1.4a1.977,1.977,0,0,0-2.8-2.8Zm17.148,2.418-6.984-6.99L17.3,10.735l6.99,6.978,3.552-3.546Zm5.592,0,6.7,6.7a6.235,6.235,0,0,1,.834,1.026l-8.946,8.952A6.236,6.236,0,0,1,31,30.019l-6.7-6.7,9.138-9.144Z" transform="translate(-10.113 0.028)" fill="#5e22f0" fill-rule="evenodd"/>
    </g>
  </g>
</svg>
