<svg xmlns="http://www.w3.org/2000/svg" width="14" height="20" viewBox="0 0 14 20">
  <g id="lab_search" transform="translate(-10 -4)">
    <path id="Path_224" data-name="Path 224" d="M19.5,26.792a2.5,2.5,0,1,1,0-4.584Z" transform="translate(-3 -9)" fill="#9c8eeb"/>
    <path id="Path_225" data-name="Path 225" d="M10,4.449A.5.5,0,0,1,10.5,4h5a.5.5,0,0,1,.5.5V6a.5.5,0,0,1-.5.5H15V7.636a.75.75,0,0,1,.5.707V11a4.5,4.5,0,0,1,3.516,7.309l1.225,1.225a1,1,0,0,1,.966.259l2.5,2.5a1,1,0,0,1-1.414,1.414l-2.5-2.5a1,1,0,0,1-.259-.966l-1.225-1.225A4.481,4.481,0,0,1,15.5,20v1.5a2.5,2.5,0,1,1-5,0V8.344a.75.75,0,0,1,.5-.707V6.5h-.5A.5.5,0,0,1,10,6V4.5A.494.494,0,0,1,10,4.449Zm3.682,8.058a3.5,3.5,0,1,1-.66,5.468L13,17.951h0a3.5,3.5,0,0,1,.685-5.443ZM14.5,8.551a.75.75,0,0,1-.5-.707V6.5H12V7.844a.75.75,0,0,1-.5.707V11h3Z" fill="#9c8eeb" fill-rule="evenodd"/>
  </g>
</svg>
