<svg id="Layer_1-2" xmlns="http://www.w3.org/2000/svg" width="72" height="59.85" viewBox="0 0 72 59.85">
  <rect id="Rectangle_129" data-name="Rectangle 129" width="72" height="42" rx="10" transform="translate(0 8.928)" fill="#e9e6fc"/>
  <g id="lab_search" transform="translate(15.066)">
    <path id="Path_224" d="M50.56,59.242a7.481,7.481,0,1,1,0-13.716V59.248Z" transform="translate(-31.102 -17.962)" fill="#5e22f0"/>
    <path id="Path_225" d="M25.11,1.344A1.5,1.5,0,0,1,26.61,0H41.574a1.494,1.494,0,0,1,1.494,1.494V5.982a1.494,1.494,0,0,1-1.494,1.494H40.08v3.4A2.247,2.247,0,0,1,41.574,13v7.95A13.469,13.469,0,0,1,52.1,42.822l3.666,3.666a3,3,0,0,1,2.892.774l7.482,7.482a2.991,2.991,0,0,1-4.23,4.23l-7.482-7.482a3,3,0,0,1-.774-2.892l-3.666-3.666A13.43,13.43,0,0,1,41.58,47.88v4.488a7.482,7.482,0,0,1-14.964,0V13a2.247,2.247,0,0,1,1.494-2.118v-3.4H26.616a1.494,1.494,0,0,1-1.494-1.494V1.344Zm11.022,24.12a10.475,10.475,0,1,1-1.98,16.368l-.066-.072h0a10.473,10.473,0,0,1,.15-14.814,10.291,10.291,0,0,1,1.9-1.476h-.006ZM38.58,13.626a2.247,2.247,0,0,1-1.494-2.118V7.488H31.1v4.02A2.247,2.247,0,0,1,29.6,13.626v7.332h8.982V13.626Z" transform="translate(-25.11)" fill="#5e22f0" fill-rule="evenodd"/>
  </g>
</svg>
