<svg id="Layer_1-2" xmlns="http://www.w3.org/2000/svg" width="72" height="59.845" viewBox="0 0 72 59.845">
  <rect id="Rectangle_127" data-name="Rectangle 127" width="72" height="42" rx="10" transform="translate(0 8.922)" fill="#e9e6fc"/>
  <g id="medicines" transform="translate(6.075)">
    <path id="Path_229" d="M92.134,13.3a13.3,13.3,0,1,1,0-.006h0Zm-6.18,1.638a1.663,1.663,0,0,1-1.992,1.248h0l-11-2.532a1.663,1.663,0,0,1,.744-3.24l11,2.532a1.667,1.667,0,0,1,1.248,2h0Z" transform="translate(-32.287)" fill="#5e22f0" fill-rule="evenodd"/>
    <path id="Path_230" d="M28.032,7.609a3.473,3.473,0,0,0-4.578-1.776,3.529,3.529,0,0,0-1.548,1.338L10.6,25.681a3.342,3.342,0,0,0,1.158,4.578,3.4,3.4,0,0,0,1.536.468l19.728,1.4a3.359,3.359,0,0,0,3.66-3.03,3.429,3.429,0,0,0-.228-1.572L28.032,7.609Z" transform="translate(-10.126 -2.215)" fill="#5e22f0"/>
    <path id="Path_231" d="M70.023,71.449a9.977,9.977,0,1,0-8.436-18.084L43.509,61.8a9.977,9.977,0,1,0,8.436,18.084ZM60.975,72l7.644-3.564A6.65,6.65,0,0,0,63,56.383h0l-7.644,3.564L60.975,72Z" transform="translate(-21.175 -20.971)" fill="#5e22f0" fill-rule="evenodd"/>
  </g>
</svg>
