<svg xmlns="http://www.w3.org/2000/svg" width="20" height="19.997" viewBox="0 0 20 19.997">
  <g id="medicines" transform="translate(-6 -6)">
    <path id="Path_229" data-name="Path 229" d="M34.889,10.444A4.444,4.444,0,1,1,30.444,6,4.444,4.444,0,0,1,34.889,10.444Zm-2.065.547a.555.555,0,0,1-.666.417l-3.675-.845a.556.556,0,0,1,.249-1.083l3.675.845A.556.556,0,0,1,32.824,10.992Z" transform="translate(-8.889)" fill="#9c8eeb" fill-rule="evenodd"/>
    <path id="Path_230" data-name="Path 230" d="M11.988,8.692a1.16,1.16,0,0,0-2.046-.146L6.163,14.73a1.115,1.115,0,0,0,.9,1.685l6.592.47A1.122,1.122,0,0,0,14.8,15.347Z" transform="translate(0 -0.889)" fill="#9c8eeb"/>
    <path id="Path_231" data-name="Path 231" d="M26.757,31.275a3.333,3.333,0,0,0-2.817-6.042L17.9,28.05a3.333,3.333,0,1,0,2.817,6.042Zm-3.023.184,2.554-1.191a2.222,2.222,0,0,0-1.878-4.028l-2.554,1.191Z" transform="translate(-4.432 -8.409)" fill="#9c8eeb" fill-rule="evenodd"/>
  </g>
</svg>
