<svg id="Layer_1-2" xmlns="http://www.w3.org/2000/svg" width="72" height="59.997" viewBox="0 0 72 59.997">
  <rect id="Rectangle_119" data-name="Rectangle 119" width="72" height="42" rx="10" transform="translate(0 9)" fill="#e9e6fc"/>
  <g id="xray" transform="translate(15.054)">
    <path id="Path_250" d="M60.742,6.732A6.732,6.732,0,1,1,54.01,0,6.733,6.733,0,0,1,60.742,6.732Zm2.244,38.16H55.9l1.116,12.246A3,3,0,1,0,63,56.862h0l-.012-11.97Zm-10.872,0H45.028v11.97a3,3,0,1,0,5.988.276l1.1-12.246Z" transform="translate(-33.064)" fill="#5e22f0" fill-rule="evenodd"/>
    <path id="Path_251" d="M26.584,27.44a1.494,1.494,0,0,0-1.494,1.494V51.38a1.494,1.494,0,0,0,1.494,1.494h38.91a1.494,1.494,0,0,0,1.494-1.494V28.934a1.494,1.494,0,0,0-1.494-1.494Zm17.958,2.994v2.244h-.75a12.337,12.337,0,0,0-3.972.84c-.552.2-1.032.4-1.368.552l-.4.186-.114.054-.03.012h0l.666,1.338L39.244,37h.018l.084-.042.336-.15c.3-.126.7-.3,1.182-.474a9.417,9.417,0,0,1,2.946-.66h.75v2.994h-1.2a10.309,10.309,0,0,0-4.932,1.71,19.051,19.051,0,0,0-1.644,1.11c-.2.15-.366.276-.48.366l-.132.108-.036.03h0l.96,1.152.96,1.152h0l.024-.018.1-.084c.09-.072.228-.18.408-.3.354-.258.846-.6,1.41-.954a7.571,7.571,0,0,1,3.36-1.278h1.2v3.246a9.468,9.468,0,0,0-2.874,1.4A7.432,7.432,0,0,0,40.114,47.8a3.568,3.568,0,0,0-.792,2.094h2.994V49.9h0a1.134,1.134,0,0,1,.186-.318,4.247,4.247,0,0,1,.93-.864,5.8,5.8,0,0,1,2.676-1.086,5.013,5.013,0,0,1,2.532,1.026,4.551,4.551,0,0,1,.96.9,1.3,1.3,0,0,1,.2.342h0v-.03h2.994a3.579,3.579,0,0,0-.8-2.112,7.54,7.54,0,0,0-1.59-1.53,8.828,8.828,0,0,0-2.844-1.386v-3.18H49.2a5.963,5.963,0,0,1,3.24,1.224,10.692,10.692,0,0,1,1.11.9c.132.12.228.222.3.3l.066.072h0l1.122-1,1.11-1h0l-.03-.036L56,42.014c-.1-.1-.228-.228-.4-.39a13.842,13.842,0,0,0-1.428-1.158,8.87,8.87,0,0,0-4.956-1.77H47.56V35.7h1.122a7.542,7.542,0,0,1,2.832.63c.306.132.606.282.9.444l.234.138.048.03h0l.828-1.248.828-1.248h0l-.03-.018-.1-.06c-.084-.048-.2-.12-.342-.2a12.432,12.432,0,0,0-1.2-.6,10.528,10.528,0,0,0-4-.864H47.554V30.446H44.56Z" transform="translate(-25.09 -10.976)" fill="#5e22f0" fill-rule="evenodd"/>
  </g>
</svg>
