<svg xmlns="http://www.w3.org/2000/svg" width="14" height="20" viewBox="0 0 14 20">
  <g id="xray" transform="translate(-10 -4)">
    <path id="Path_250" data-name="Path 250" d="M20.227,6.25A2.25,2.25,0,1,1,17.977,4,2.25,2.25,0,0,1,20.227,6.25ZM20.977,19H18.609l.372,4.091a1,1,0,0,0,2-.091Zm-3.632,0H14.977v4a1,1,0,0,0,2,.091Zm6.61-10h0Zm-12,0h0Z" transform="translate(-0.977)" fill="#9c8eeb" fill-rule="evenodd"/>
    <path id="Path_251" data-name="Path 251" d="M10.5,15a.5.5,0,0,0-.5.5V23a.5.5,0,0,0,.5.5h13A.5.5,0,0,0,24,23V15.5a.5.5,0,0,0-.5-.5Zm6,1v.75h-.25a4.125,4.125,0,0,0-1.327.28c-.185.067-.345.134-.458.185l-.135.062-.038.018-.011.005,0,0h0l.223.447.224.447h0l.006,0,.028-.014.112-.051c.1-.043.235-.1.394-.159a3.177,3.177,0,0,1,.985-.22h.25v1h-.4a3.439,3.439,0,0,0-1.647.572c-.223.135-.414.269-.549.37-.068.05-.123.093-.161.123l-.045.036-.013.01,0,0h0l.32.384.32.384h0l.008-.006.034-.028c.031-.024.077-.06.136-.1.118-.087.283-.2.472-.318A2.521,2.521,0,0,1,16.1,19.75h.4v1.084a3.155,3.155,0,0,0-.96.467,2.442,2.442,0,0,0-.526.5,1.185,1.185,0,0,0-.264.7h1s0,0,0,.005v0a.006.006,0,0,0,0,0v0a.382.382,0,0,1,.062-.107,1.454,1.454,0,0,1,.31-.288,1.941,1.941,0,0,1,.894-.363,1.669,1.669,0,0,1,.846.342,1.535,1.535,0,0,1,.32.3.43.43,0,0,1,.067.115h0s0,0,0-.011h1a1.2,1.2,0,0,0-.268-.706,2.523,2.523,0,0,0-.532-.511,2.963,2.963,0,0,0-.95-.464V19.75h.55a1.981,1.981,0,0,1,1.082.409,3.519,3.519,0,0,1,.371.3c.044.041.077.074.1.1l.023.024,0,0L20,20.25l.371-.335h0l0,0-.011-.012-.038-.039c-.032-.033-.077-.077-.134-.13a4.526,4.526,0,0,0-.478-.387,2.963,2.963,0,0,0-1.656-.591H17.5v-1h.375a2.5,2.5,0,0,1,.947.211,3.1,3.1,0,0,1,.3.148l.079.046.017.011h0l.277-.416.277-.416h0l0,0-.01-.007-.033-.021c-.028-.017-.067-.04-.115-.067a4.081,4.081,0,0,0-.4-.2,3.5,3.5,0,0,0-1.335-.289H17.5V16Z" transform="translate(0 -5.5)" fill="#9c8eeb" fill-rule="evenodd"/>
  </g>
</svg>
