<svg xmlns="http://www.w3.org/2000/svg" width="20" height="19.966" viewBox="0 0 20 19.966">
  <g id="Layer_1-2" transform="translate(0 0.005)">
    <path id="Path_240" data-name="Path 240" d="M0,11.032V8.927c.013-.036.028-.071.038-.107A1.376,1.376,0,0,1,1.251,7.785c.386-.057.769-.144,1.156-.182.308-.03.509-.137.576-.457a1.211,1.211,0,0,1,.138-.321A.267.267,0,0,0,3.089,6.5q-.447-.6-.878-1.218A1.351,1.351,0,0,1,2.347,3.5q.57-.589,1.16-1.157a1.357,1.357,0,0,1,1.8-.136c.342.238.692.467,1.011.732a.543.543,0,0,0,.729.079A1.054,1.054,0,0,1,7.355,2.9a.29.29,0,0,0,.223-.279c.072-.475.152-.949.232-1.423A1.36,1.36,0,0,1,9.218,0q.781,0,1.562,0a1.36,1.36,0,0,1,1.408,1.2c.081.48.161.961.235,1.442a.28.28,0,0,0,.2.253,4.937,4.937,0,0,1,.54.224.277.277,0,0,0,.321-.039c.377-.278.759-.548,1.14-.821a1.383,1.383,0,0,1,1.923.144q.52.514,1.035,1.033a1.374,1.374,0,0,1,.158,1.918c-.276.386-.551.772-.834,1.154a.274.274,0,0,0-.032.321,4.3,4.3,0,0,1,.217.521.291.291,0,0,0,.266.214c.489.074.976.157,1.464.236a1.278,1.278,0,0,1,.895.537A4.107,4.107,0,0,1,20,8.926v2.106c-.013.035-.028.07-.039.106a1.378,1.378,0,0,1-1.213,1.035c-.393.058-.782.145-1.176.185-.294.029-.485.131-.549.436a1.325,1.325,0,0,1-.145.34.268.268,0,0,0,.033.321c.286.386.567.778.845,1.17A1.368,1.368,0,0,1,17.61,16.5q-.533.543-1.077,1.075a1.376,1.376,0,0,1-1.878.149c-.392-.279-.784-.558-1.172-.844a.275.275,0,0,0-.321-.037,4.039,4.039,0,0,1-.522.217.3.3,0,0,0-.221.282c-.073.482-.156.962-.235,1.443a1.288,1.288,0,0,1-.551.907,4.06,4.06,0,0,1-.58.269H8.944a.567.567,0,0,0-.071-.031,1.37,1.37,0,0,1-1.07-1.2c-.072-.462-.155-.922-.226-1.385a.3.3,0,0,0-.22-.283,3.873,3.873,0,0,1-.522-.217.275.275,0,0,0-.321.036q-.581.428-1.172.844a1.371,1.371,0,0,1-1.877-.15q-.544-.532-1.077-1.075a1.365,1.365,0,0,1-.146-1.873c.283-.4.575-.788.849-1.191a.369.369,0,0,0,.029-.279c-.053-.18-.15-.346-.209-.524a.316.316,0,0,0-.292-.237c-.483-.07-.964-.154-1.445-.233a1.247,1.247,0,0,1-.858-.492A4.4,4.4,0,0,1,0,11.032ZM10.012,5.806A4.173,4.173,0,1,0,14.18,9.962a4.175,4.175,0,0,0-4.168-4.156Z" fill="#9c8eeb"/>
    <path id="Path_241" data-name="Path 241" d="M138.124,134.81A3.132,3.132,0,1,1,135,131.68a3.122,3.122,0,0,1,3.122,3.13Z" transform="translate(-124.992 -124.826)" fill="#9c8eeb"/>
  </g>
</svg>
