<svg xmlns="http://www.w3.org/2000/svg" width="20" height="20" viewBox="0 0 20 20">
  <g id="Layer_1" data-name="Layer 1" transform="translate(20.005 19.999) rotate(180)">
    <g id="Group_746" data-name="Group 746" transform="translate(0.005 -0.001)">
      <path id="Path_279" data-name="Path 279" d="M11.169,3.091a2.06,2.06,0,0,0-1.027-.5c-1.9.125-4-.165-5.879,0a1.812,1.812,0,0,0-1.545,1.22c-.23,3.956-.046,7.966-.094,11.941A1.841,1.841,0,0,0,4.1,17.394c1.831.266,4.208-.162,6.1.01a1.856,1.856,0,0,0,1.41-1.234,10,10,0,0,1,.181-1.024,1.282,1.282,0,0,1,2.467.545,4.464,4.464,0,0,1-3.76,4.24c-2.006.2-4.473-.141-6.589.006A4.411,4.411,0,0,1,.1,15.993c.212-3.886-.285-8.081,0-11.932A4.385,4.385,0,0,1,3.962.054c2.092.141,4.413-.182,6.477,0A4.456,4.456,0,0,1,14.253,4.3a1.278,1.278,0,0,1-2.495.453c-.19-.648-.024-1.111-.59-1.667Z" transform="translate(-0.005 0.001)" fill="#9180eb"/>
      <path id="Path_280" data-name="Path 280" d="M78.088,74.1c-.264-.391-.8-.706-1.008-1.126a1.277,1.277,0,0,1,1.909-1.617c1.092.838,2.114,2.326,3.208,3.224a1.282,1.282,0,0,1,0,1.569c-1.116.918-2.154,2.425-3.269,3.284a1.265,1.265,0,0,1-1.938-1.465c.178-.48.713-.77,1.007-1.157.046-.061.116-.076.09-.182H68.821c-.158,0-.618-.4-.716-.546a1.281,1.281,0,0,1,.452-1.828c.051-.027.363-.157.384-.157h9.146Z" transform="translate(-62.465 -65.37)" fill="#9180eb"/>
    </g>
  </g>
</svg>
