<svg id="Layer_1-2" xmlns="http://www.w3.org/2000/svg" width="72" height="59.862" viewBox="0 0 72 59.862">
  <rect id="Rectangle_125" data-name="Rectangle 125" width="72" height="42" rx="10" transform="translate(0 8.928)" fill="#e9e6fc"/>
  <g id="surgical_sterilization" transform="translate(15.831)">
    <path id="Path_242" d="M57.967,48.858a5.991,5.991,0,1,0,2.712,5.064l.336-6.012h2.328l.33,6.012a5.989,5.989,0,1,0,2.718-5.064L63.679,0,62.185.084,60.691,0,57.979,48.858Zm5.208-3.942-1-17.892-1,17.892h1.992Zm.5-23.91a1.494,1.494,0,1,1-1.494-1.494A1.494,1.494,0,0,1,63.673,21.006ZM51.7,53.874A2.994,2.994,0,1,1,54.7,56.868,2.991,2.991,0,0,1,51.7,53.874ZM69.661,50.88a2.994,2.994,0,1,0,2.994,2.994A2.991,2.991,0,0,0,69.661,50.88Z" transform="translate(-35.315)" fill="#5e22f0" fill-rule="evenodd"/>
    <path id="Path_243" d="M32.3,16.464V0s-5.2,3.384-5.91,16.464a2.868,2.868,0,0,0,2.754,2.988H29.3a2.991,2.991,0,0,0,2.994-2.994Z" transform="translate(-26.386)" fill="#5e22f0"/>
    <path id="Path_244" d="M28.76,39.654a2.244,2.244,0,1,1,4.488,0v.126L28.76,44.268v-4.62Z" transform="translate(-27.335 -14.964)" fill="#5e22f0"/>
    <path id="Path_245" d="M28.76,52.908v2.5l4.488-4.488v-2.5L28.76,52.908Z" transform="translate(-27.335 -19.368)" fill="#5e22f0"/>
    <path id="Path_246" d="M28.76,66.64v-2.5l4.488-4.488v2.5L28.76,66.64Z" transform="translate(-27.335 -23.86)" fill="#5e22f0"/>
    <path id="Path_247" d="M28.76,75.354v10.6a2.244,2.244,0,0,0,4.488,0V70.86L28.76,75.348Z" transform="translate(-27.335 -28.344)" fill="#5e22f0"/>
  </g>
</svg>
