<svg xmlns="http://www.w3.org/2000/svg" width="19.977" height="20" viewBox="0 0 19.977 20">
  <path id="stethoscope" d="M9.352,8.222a1.111,1.111,0,1,0-.962-1.667H8.241A1.667,1.667,0,0,0,6.574,8.222v5a.518.518,0,0,0-.53.555A6.111,6.111,0,0,0,10.463,19.1v1.343a1.667,1.667,0,0,0,1.111,1.572,4.028,4.028,0,0,0,8.055-.044V19.75a2.083,2.083,0,0,1,4.167,0v1.345a1.667,1.667,0,1,0,1.111,0V19.75a3.194,3.194,0,0,0-6.389,0v2.222a2.917,2.917,0,0,1-5.833.044A1.667,1.667,0,0,0,13.8,20.444V19.1a6.111,6.111,0,0,0,4.419-5.325.518.518,0,0,0-.53-.555v-5a1.667,1.667,0,0,0-1.667-1.667H15.87a1.111,1.111,0,1,0,0,1.111h.149a.556.556,0,0,1,.556.556v5h.116a.622.622,0,0,0-.594.554,4.005,4.005,0,0,1-7.934,0,.622.622,0,0,0-.594-.554h.116v-5a.556.556,0,0,1,.556-.556h.149A1.111,1.111,0,0,0,9.352,8.222Z" transform="translate(-6.042 -6)" fill="#9c8eeb"/>
</svg>
