<svg xmlns="http://www.w3.org/2000/svg" width="72" height="59.752" viewBox="0 0 72 59.752">
  <g id="Layer_1-2" transform="translate(0 0.003)">
    <rect id="Rectangle_126" data-name="Rectangle 126" width="72" height="42" rx="10" transform="translate(0 8.873)" fill="#e9e6fc"/>
    <path id="stethoscope" d="M20.076,6.659A3.327,3.327,0,1,0,17.2,1.667h-.444A4.992,4.992,0,0,0,11.76,6.659h0V21.623a1.55,1.55,0,0,0-1.59,1.512v.15a18.289,18.289,0,0,0,13.224,15.93v4.02a4.989,4.989,0,0,0,3.324,4.7,12.059,12.059,0,0,0,24.114-.132V41.159a6.234,6.234,0,1,1,12.468,0v4.026a4.989,4.989,0,1,0,3.324,0V41.159a9.564,9.564,0,0,0-19.128,0v6.648a8.732,8.732,0,0,1-17.46.132,4.986,4.986,0,0,0,3.336-4.7v-4.02A18.28,18.28,0,0,0,46.6,23.279a1.551,1.551,0,0,0-1.434-1.656h-.15V6.653A4.992,4.992,0,0,0,40.02,1.661h-.456A3.325,3.325,0,1,0,38.346,6.2a3.386,3.386,0,0,0,1.218-1.218h.444A1.662,1.662,0,0,1,41.67,6.647V21.611h.348a1.857,1.857,0,0,0-1.776,1.656,11.985,11.985,0,0,1-23.742,0,1.861,1.861,0,0,0-1.776-1.656h.348V6.653a1.662,1.662,0,0,1,1.662-1.662h.444a3.324,3.324,0,0,0,2.88,1.668Z" transform="translate(-4.068 0)" fill="#5e22f0"/>
  </g>
</svg>
